<?xml version="1.0" encoding="utf-8"?>
<!-- Generator: Adobe Illustrator 18.1.1, SVG Export Plug-In . SVG Version: 6.00 Build 0)  -->
<!DOCTYPE svg PUBLIC "-//W3C//DTD SVG 1.1//EN" "http://www.w3.org/Graphics/SVG/1.1/DTD/svg11.dtd">
<svg version="1.1" id="object" xmlns="http://www.w3.org/2000/svg" xmlns:xlink="http://www.w3.org/1999/xlink" x="0px" y="0px"
	 viewBox="0 89.2 612 613.5" enable-background="new 0 89.2 612 613.5" xml:space="preserve">
<g>
	<path fill="#FFFFFF" d="M612,395.4c0,169-136.8,307.3-305.8,307.3C136.8,702.8,0,564.3,0,395.4C0,226.1,136.8,89.2,306.2,89.2
		C475,89.2,612,226.1,612,395.4z M382.5,645.2C487.4,607.7,564.1,511,564.1,395.3c0-142.6-115.6-258.2-257.9-258.2
		C163.6,137.1,48,252.7,48,395.3c0,116.8,77.9,214.2,184.5,249.9V596c0-29.3,12.2-45,24.6-53.3c-66.5-6.9-137.7-30.8-137.7-145.9
		c0-32.4,11.3-58.7,30.2-79.1c-3.1-7.8-12.9-37.7,3.1-78.2c0,0,24.8-8,81.2,30.2c23.3-6.6,48.8-9.9,73.6-9.9c25.1,0,50.3,3.3,74,9.9
		c56.3-38.4,80.9-30.2,80.9-30.2c16.2,40.4,6,70.3,3.1,78.2c18.9,20.4,30.2,46.8,30.2,79.1c0,115.1-71.4,139-137.7,145.9
		c12.2,8.4,24.8,24,24.8,53.3v49.2H382.5z"/>
</g>
</svg>
