<?xml version="1.0" encoding="utf-8"?>
<!-- Generator: Adobe Illustrator 18.1.1, SVG Export Plug-In . SVG Version: 6.00 Build 0)  -->
<!DOCTYPE svg PUBLIC "-//W3C//DTD SVG 1.1//EN" "http://www.w3.org/Graphics/SVG/1.1/DTD/svg11.dtd">
<svg version="1.1" id="Layer_1" xmlns="http://www.w3.org/2000/svg" xmlns:xlink="http://www.w3.org/1999/xlink" x="0px" y="0px"
	 viewBox="0 0 480.3 481.5" enable-background="new 0 0 480.3 481.5" xml:space="preserve">
<g>
	<path fill="#FFFFFF" d="M480.3,240.3c0,132.6-107.4,241.2-240,241.2C107.4,481.5,0,372.8,0,240.3C0,107.4,107.4,0,240.3,0
		C372.8,0,480.3,107.4,480.3,240.3z M300.2,436.3c82.3-29.4,142.5-105.3,142.5-196.1c0-111.9-90.7-202.6-202.4-202.6
		c-111.9,0-202.6,90.7-202.6,202.6c0,91.7,61.1,168.1,144.8,196.1v-38.6c0-23,9.6-35.3,19.3-41.8c-52.2-5.4-108.1-24.2-108.1-114.5
		c0-25.4,8.9-46.1,23.7-62.1c-2.4-6.1-10.1-29.6,2.4-61.4c0,0,19.5-6.3,63.7,23.7c18.3-5.2,38.3-7.8,57.8-7.8
		c19.7,0,39.5,2.6,58.1,7.8c44.2-30.1,63.5-23.7,63.5-23.7c12.7,31.7,4.7,55.2,2.4,61.4c14.8,16,23.7,36.7,23.7,62.1
		c0,90.3-56,109.1-108.1,114.5c9.6,6.6,19.5,18.8,19.5,41.8V436.3z"/>
</g>
</svg>
