<svg xmlns="http://www.w3.org/2000/svg" width="512" height="512" viewBox="0 0 512 512">
  <defs>
    <style>
      .cls-1 {
        fill: #fff;
        fill-rule: evenodd;
      }
    </style>
  </defs>
  <path id="W_D_copy" data-name="W D copy" class="cls-1" d="M0,0H512V512H0V0ZM237.88,223.227L284.785,58.565h-39.5L216.649,177.556l-31.1-118.991h-27.4L126.789,177.556,97.905,58.565H58.653l47.152,164.662h37.277l28.637-113.066L200.6,223.227H237.88ZM139.626,454.681c51.6,0,87.392-32.587,87.392-82.208s-35.8-82.454-87.392-82.454H74.7V454.681h64.926Zm0-30.859H109.755V320.878h29.871c33.821,0,51.6,22.465,51.6,51.6C191.222,400.37,172.213,423.822,139.626,423.822Z"/>
</svg>
